<svg width="339" height="1135" viewBox="0 0 339 1135" fill="none" xmlns="http://www.w3.org/2000/svg">
<path d="M175 9.5C244.657 9.5 244.234 9.5 278.995 9.5C306.609 9.5 329.001 31.8858 329.001 59.5V238.497C329.001 266.111 306.615 288.497 279.001 288.497H59.5C31.8857 288.497 9.5 310.883 9.5 338.497V517.494C9.5 545.108 31.8858 567.494 59.5 567.494H279.001C306.615 567.494 329.001 589.88 329.001 617.494V796.491C329.001 824.105 306.615 846.491 279.001 846.491H59.5C31.8857 846.491 9.5 868.877 9.5 896.491V1075.49C9.5 1103.1 31.8858 1125.49 59.5 1125.49H175" 
    stroke="purple" 
    stroke-width="25"
/>
</svg>
